<svg xmlns="http://www.w3.org/2000/svg" viewBox="15 74 166 33">
  <g transform="translate(0,49.705138)">
    <g>
      <g style="font-weight:600;font-size:23.0134px;font-family:Figtree;letter-spacing:-0.579437px;stroke-width:0.107875;stroke-linecap:round;stroke-linejoin:round;stroke-miterlimit:5.2;paint-order:stroke fill markers" transform="scale(0.80422805,1.2434284)">
        <path style="fill:#808080;stroke:#808080" d="m 38.298017,33.71174 q 0,1.202361 -0.505666,2.202455 -0.494428,1.000094 -1.483285,1.674314 -1.033805,0.707932 -2.460906,1.078753 -1.4271,0.359585 -3.483473,0.359585 -1.809159,0 -3.371104,-0.303399 -1.550707,-0.292163 -2.854201,-0.786591 v -3.775636 h 0.404533 q 0.314636,0.179792 0.943909,0.516902 0.640509,0.325874 1.281019,0.561851 0.809065,0.303399 1.494523,0.483192 0.696694,0.168555 1.606892,0.168555 0.887724,0 1.61813,-0.146081 0.730406,-0.146082 1.224834,-0.449481 0.550614,-0.325873 0.820302,-0.75288 0.269688,-0.438243 0.269688,-1.123701 0,-0.651746 -0.202266,-1.056279 -0.191029,-0.404532 -0.606799,-0.662984 -0.415769,-0.235977 -1.045042,-0.325873 -0.618035,-0.0899 -1.460811,-0.0899 h -3.078941 v -2.989045 h 2.966571 q 0.842776,0 1.449574,-0.123607 0.606799,-0.134844 0.921435,-0.370821 0.348347,-0.269689 0.471955,-0.595562 0.134844,-0.325873 0.134844,-0.820302 0,-0.842776 -0.842776,-1.224834 -0.831539,-0.382058 -2.281113,-0.382058 -0.86525,0 -1.606893,0.168555 -0.741643,0.168555 -1.415863,0.393295 -0.730406,0.258451 -1.16865,0.483192 -0.438243,0.213503 -0.921435,0.438243 h -0.415769 v -3.517185 q 1.146175,-0.415769 2.798016,-0.752879 1.663078,-0.348348 3.460999,-0.348348 3.438526,0 5.157789,1.078753 1.730499,1.067517 1.730499,2.977808 0,1.427101 -0.932672,2.460906 -0.921435,1.033805 -2.393483,1.382152 v 0.168555 q 0.606799,0.101134 1.269782,0.359585 0.674221,0.247214 1.224834,0.707932 0.561851,0.471954 0.921435,1.168649 0.359585,0.685457 0.359585,1.76421 z m 10.196855,1.696789 v -2.62946 q -0.820301,0.06742 -1.775447,0.191029 -0.955146,0.11237 -1.449575,0.269688 -0.606798,0.191029 -0.932672,0.561851 -0.314636,0.359584 -0.314636,0.955146 0,0.393295 0.06742,0.640509 0.06742,0.247214 0.33711,0.471955 0.258452,0.22474 0.618036,0.33711 0.359584,0.101133 1.123701,0.101133 0.606799,0 1.224834,-0.247214 0.629273,-0.247214 1.101227,-0.651747 z m 0,1.95524 q -0.325873,0.247214 -0.809064,0.595562 -0.483192,0.348347 -0.910198,0.550613 -0.595562,0.269689 -1.236072,0.393296 -0.640509,0.134844 -1.404626,0.134844 -1.797922,0 -3.011519,-1.112464 -1.213597,-1.112464 -1.213597,-2.842964 0,-1.382153 0.618035,-2.258639 0.618036,-0.876487 1.752974,-1.382153 1.123701,-0.505665 2.786779,-0.719169 1.663078,-0.213503 3.449762,-0.314636 v -0.06742 q 0,-1.045042 -0.854012,-1.438337 -0.854013,-0.404533 -2.517091,-0.404533 -1.000094,0 -2.135032,0.359585 -1.134938,0.348347 -1.629367,0.539376 H 41.011023 V 26.3515 q 0.64051,-0.168555 2.078847,-0.393295 1.449574,-0.235978 2.899149,-0.235978 3.449762,0 4.977996,1.067517 1.53947,1.056279 1.53947,3.326155 v 8.585077 h -4.011613 z m 20.546145,1.337205 H 64.366421 L 60.98408,33.700503 h -1.292256 v 5.000471 H 55.6465 V 26.08181 h 4.045324 v 5.067892 q 1.123701,-0.01124 1.550708,-0.235977 0.427006,-0.235978 0.988856,-1.224835 0.168556,-0.292162 0.404533,-0.752879 0.235977,-0.460718 0.370821,-0.707932 0.618036,-1.101227 1.438338,-1.629367 0.831539,-0.539376 2.303587,-0.539376 0.427006,0 0.898961,0.01124 0.483191,0.01124 0.651747,0.01124 v 3.371103 h -1.101228 q -0.67422,0 -1.078753,0.337111 -0.393295,0.33711 -0.685457,1.000094 -0.247215,0.550613 -0.449481,0.876486 -0.202266,0.314637 -0.516902,0.539377 z m 9.106865,-3.292445 v -2.62946 q -0.820302,0.06742 -1.775448,0.191029 -0.955146,0.11237 -1.449574,0.269688 -0.606799,0.191029 -0.932672,0.561851 -0.314637,0.359584 -0.314637,0.955146 0,0.393295 0.06742,0.640509 0.06742,0.247214 0.337111,0.471955 0.258451,0.22474 0.618035,0.33711 0.359585,0.101133 1.123701,0.101133 0.606799,0 1.224835,-0.247214 0.629272,-0.247214 1.101227,-0.651747 z m 0,1.95524 q -0.325874,0.247214 -0.809065,0.595562 -0.483192,0.348347 -0.910198,0.550613 -0.595562,0.269689 -1.236071,0.393296 -0.64051,0.134844 -1.404627,0.134844 -1.797921,0 -3.011519,-1.112464 -1.213597,-1.112464 -1.213597,-2.842964 0,-1.382153 0.618036,-2.258639 0.618035,-0.876487 1.752974,-1.382153 1.123701,-0.505665 2.786778,-0.719169 1.663078,-0.213503 3.449763,-0.314636 v -0.06742 q 0,-1.045042 -0.854013,-1.438337 -0.854013,-0.404533 -2.517091,-0.404533 -1.000094,0 -2.135032,0.359585 -1.134938,0.348347 -1.629366,0.539376 H 70.664032 V 26.3515 q 0.64051,-0.168555 2.078847,-0.393295 1.449575,-0.235978 2.899149,-0.235978 3.449763,0 4.977996,1.067517 1.539471,1.056279 1.539471,3.326155 v 8.585077 h -4.011613 z m 27.726598,1.337205 h -4.65212 l -3.180078,-5.000471 h -1.146175 v 5.000471 h -4.02285 v -5.000471 h -1.146175 l -3.180075,5.000471 h -4.652122 l 4.348723,-6.494993 q -0.314636,-0.235977 -0.505665,-0.516903 -0.19103,-0.280925 -0.460718,-0.89896 -0.33711,-0.75288 -0.741643,-1.045042 -0.404532,-0.292163 -1.022568,-0.292163 H 84.411787 V 26.08181 q 0.19103,0 0.629273,-0.01124 0.44948,-0.01124 0.921435,-0.01124 1.561944,0 2.348535,0.56185 0.797828,0.561851 1.39339,1.606893 0.134844,0.247214 0.359584,0.696695 0.235977,0.44948 0.415769,0.764116 0.595562,1.033805 0.988857,1.247309 0.393296,0.213503 1.404627,0.213503 V 26.08181 h 4.02285 v 5.067892 q 1.112464,-0.01124 1.472048,-0.247214 0.370822,-0.235978 0.921435,-1.213598 0.168555,-0.292162 0.404533,-0.752879 0.235977,-0.460718 0.370817,-0.707932 0.50567,-0.955146 1.33721,-1.561945 0.83154,-0.606798 2.40472,-0.606798 0.42701,0 0.89896,0.01124 0.48319,0.01124 0.65175,0.01124 v 3.371103 h -1.10123 q -0.62927,0 -1.04504,0.314637 -0.40454,0.303399 -0.71917,1.022568 -0.24722,0.550613 -0.44948,0.876486 -0.20227,0.314637 -0.5169,0.539377 z m 14.59053,0 h -3.92172 v -7.719827 l -5.48366,7.719827 H 107.711 V 26.08181 h 3.92172 v 6.910762 l 5.07912,-6.910762 h 3.75317 z"/>
        <path d="m 140.3594,42.544031 h -3.96666 v -3.899243 h -10.15826 v 3.899243 h -3.96666 v -7.090554 h 1.26978 q 1.30349,-2.730593 1.98895,-6.157882 0.69669,-3.427288 0.69669,-7.326531 h 12.48432 v 13.484413 h 1.65184 z m -5.96685,-7.090554 V 25.205323 h -4.18017 q -0.2135,3.056467 -0.89896,5.652217 -0.67422,2.584512 -1.6406,4.595937 z m 20.52367,-2.314824 h -9.2593 q 0.0899,1.483285 1.1237,2.269876 1.04504,0.786591 3.06771,0.786591 1.28101,0 2.48338,-0.460717 1.20236,-0.460718 1.89905,-0.988857 h 0.44948 v 3.247496 q -1.37091,0.550613 -2.58451,0.797828 -1.2136,0.247214 -2.68565,0.247214 -3.79811,0 -5.82077,-1.708026 -2.02266,-1.708026 -2.02266,-4.865626 0,-3.123889 1.91029,-4.944285 1.92153,-1.831633 5.25892,-1.831633 3.07894,0 4.62965,1.561945 1.55071,1.550708 1.55071,4.47233 z m -4.02285,-2.371009 q -0.0337,-1.269783 -0.62928,-1.910292 -0.59556,-0.64051 -1.8541,-0.64051 -1.16865,0 -1.92153,0.606799 -0.75288,0.606798 -0.84278,1.944003 z m 16.59071,-1.944003 h -4.02285 v 9.877333 h -4.04532 v -9.877333 h -4.02285 V 26.08181 h 12.09102 z m 9.0844,6.584888 v -2.62946 q -0.82031,0.06742 -1.77545,0.191029 -0.95515,0.11237 -1.44958,0.269688 -0.6068,0.191029 -0.93267,0.561851 -0.31464,0.359584 -0.31464,0.955146 0,0.393295 0.0674,0.640509 0.0674,0.247214 0.33711,0.471955 0.25845,0.22474 0.61803,0.33711 0.35959,0.101133 1.1237,0.101133 0.6068,0 1.22484,-0.247214 0.62927,-0.247214 1.10123,-0.651747 z m 0,1.95524 q -0.32588,0.247214 -0.80907,0.595562 -0.48319,0.348347 -0.9102,0.550613 -0.59556,0.269689 -1.23607,0.393296 -0.64051,0.134844 -1.40463,0.134844 -1.79792,0 -3.01151,-1.112464 -1.2136,-1.112464 -1.2136,-2.842964 0,-1.382153 0.61803,-2.258639 0.61804,-0.876487 1.75298,-1.382153 1.1237,-0.505665 2.78678,-0.719169 1.66307,-0.213503 3.44976,-0.314636 v -0.06742 q 0,-1.045042 -0.85401,-1.438337 -0.85402,-0.404533 -2.51709,-0.404533 -1.0001,0 -2.13504,0.359585 -1.13493,0.348347 -1.62936,0.539376 h -0.37082 V 26.3515 q 0.64051,-0.168555 2.07884,-0.393295 1.44958,-0.235978 2.89915,-0.235978 3.44976,0 4.978,1.067517 1.53947,1.056279 1.53947,3.326155 v 8.585077 h -4.01161 z m 19.65842,1.337205 h -4.04532 V 28.9023 h -3.33739 q -0.0337,0.842776 -0.0562,1.31473 -0.0112,0.460717 -0.0337,1.078753 -0.0787,1.809159 -0.3034,2.944097 -0.22474,1.134938 -0.57309,1.854107 -0.33711,0.730406 -0.7304,1.157412 -0.38206,0.427006 -0.77536,0.741643 -0.44948,0.359584 -1.17988,0.573087 -0.71917,0.213504 -1.39339,0.213504 -0.52814,0 -1.06752,-0.04495 -0.53938,-0.03371 -0.64051,-0.03371 v -3.23626 h 0.12361 q 0.045,0 0.15732,0.01124 0.11237,0.01124 0.22474,0.01124 0.29216,0 0.59556,-0.05619 0.31464,-0.05618 0.5169,-0.247214 0.75288,-0.719169 1.0001,-1.797922 0.25845,-1.08999 0.37082,-3.213785 0.0449,-0.786591 0.0899,-1.797922 0.045,-1.011331 0.0787,-2.29235 h 10.97856 z m 11.35427,-4.225117 q 0,-0.809065 -0.48319,-1.213597 -0.48319,-0.404532 -1.39339,-0.404532 h -2.20245 v 3.292444 h 2.20245 q 0.6068,0 0.98886,-0.168555 0.38205,-0.179792 0.56185,-0.438244 0.19103,-0.247214 0.25845,-0.516902 0.0674,-0.269688 0.0674,-0.550614 z m 4.15769,-0.03371 q 0,0.966383 -0.38205,1.786685 -0.38206,0.820302 -1.0001,1.337204 -0.76411,0.618036 -1.58442,0.876487 -0.80906,0.258452 -2.19121,0.258452 h -7.11303 V 26.08181 h 4.03409 v 4.213879 h 3.09017 q 1.35968,0 2.19122,0.202266 0.84278,0.191029 1.59566,0.75288 0.67422,0.505666 1.01133,1.359678 0.34834,0.842776 0.34834,1.831634 z"/>
      </g>
    </g>
    <circle style="fill:#ff0000" cx="173.467" cy="51.302559" r="3.1806657"/>
  </g>
</svg>
